<svg width="502" height="55" viewBox="0 0 502 55" fill="none" xmlns="http://www.w3.org/2000/svg">
<path d="M54.7969 8.9998C48.887 6.21996 42.9797 3.43454 37.075 0.643555L0 18.1186L6.34375 21.1811L5.81875 21.2654V53.9811H8.94375V23.8998L11.1937 23.5123L12.0687 23.9342V40.4592C12.0687 43.3154 28.3375 51.4998 31.5969 53.1123C33.2914 53.944 35.1564 54.3697 37.044 54.3556C38.9316 54.3415 40.79 53.888 42.4719 53.0311C62.0687 42.9998 62.0687 41.1529 62.0687 40.4592V23.9342L74.1125 18.1311C74.1125 18.1311 62.2375 12.5029 54.7969 8.9998ZM58.9437 39.9311C53.2062 43.7501 47.2293 47.1967 41.05 50.2498C39.8024 50.8865 38.4236 51.2236 37.023 51.2345C35.6224 51.2453 34.2385 50.9296 32.9813 50.3123C26.7796 47.3618 20.8305 43.9075 15.1937 39.9842V25.4373L37.0687 35.9779L58.9437 25.4373V39.9311ZM37.0687 32.5154L16.4937 22.5998L36.7094 19.1154L36.1781 16.0311L11.6469 20.2623L7.2625 18.1498L37.0656 4.10293C39.6437 5.33106 63.7 16.6467 66.8844 18.1467L37.0687 32.5154Z" fill="black"/>
<path d="M97.4348 26H92.7424V7.77539H86.7331V3.87012H103.444V7.77539H97.4348V26ZM125.914 26H121.236V16.4487H112.472V26H107.78V3.87012H112.472V12.5435H121.236V3.87012H125.914V26ZM145.189 26H132.444V3.87012H145.189V7.71484H137.137V12.5737H144.629V16.4185H137.137V22.125H145.189V26ZM179.366 26H173.402L163.775 9.25879H163.639C163.679 9.95508 163.715 10.6564 163.745 11.3628C163.775 12.0692 163.806 12.7756 163.836 13.4819C163.866 14.1782 163.896 14.8796 163.927 15.5859V26H159.734V3.87012H165.652L175.264 20.4448H175.37C175.35 19.7586 175.325 19.0775 175.294 18.4014C175.264 17.7253 175.234 17.0492 175.204 16.373C175.183 15.6969 175.163 15.0208 175.143 14.3447V3.87012H179.366V26ZM203.894 3.87012V18.1895C203.894 19.7132 203.556 21.0907 202.88 22.3218C202.214 23.5428 201.2 24.5116 199.838 25.228C198.485 25.9445 196.78 26.3027 194.721 26.3027C191.795 26.3027 189.565 25.556 188.031 24.0625C186.497 22.569 185.73 20.5911 185.73 18.1289V3.87012H190.408V17.4175C190.408 19.244 190.781 20.5256 191.528 21.2622C192.274 21.9989 193.379 22.3672 194.843 22.3672C195.872 22.3672 196.704 22.1906 197.34 21.8374C197.986 21.4842 198.46 20.9393 198.763 20.2026C199.066 19.466 199.217 18.5275 199.217 17.3872V3.87012H203.894ZM219.613 26L214.285 8.63818H214.149C214.169 9.05192 214.199 9.67757 214.239 10.5151C214.29 11.3426 214.335 12.2256 214.376 13.1641C214.416 14.1025 214.436 14.9502 214.436 15.707V26H210.243V3.87012H216.631L221.868 20.793H221.959L227.514 3.87012H233.902V26H229.527V15.5254C229.527 14.8291 229.538 14.0269 229.558 13.1187C229.588 12.2104 229.623 11.3477 229.664 10.5303C229.704 9.7028 229.734 9.08219 229.755 8.66846H229.618L223.912 26H219.613ZM240.417 3.87012H247.305C250.251 3.87012 252.481 4.28385 253.995 5.11133C255.509 5.9388 256.266 7.39193 256.266 9.4707C256.266 10.3083 256.129 11.0651 255.857 11.7412C255.594 12.4173 255.211 12.9723 254.706 13.4062C254.202 13.8402 253.586 14.1227 252.86 14.2539V14.4053C253.596 14.5566 254.262 14.819 254.858 15.1924C255.453 15.5557 255.927 16.0905 256.281 16.7969C256.644 17.4932 256.826 18.4215 256.826 19.582C256.826 20.9242 256.498 22.0745 255.842 23.0332C255.186 23.9919 254.247 24.7285 253.026 25.2432C251.815 25.7477 250.372 26 248.697 26H240.417V3.87012ZM245.11 12.6343H247.834C249.197 12.6343 250.14 12.4224 250.665 11.9985C251.19 11.5646 251.452 10.9289 251.452 10.0913C251.452 9.24365 251.139 8.63818 250.514 8.2749C249.898 7.90153 248.919 7.71484 247.577 7.71484H245.11V12.6343ZM245.11 16.3579V22.125H248.167C249.58 22.125 250.564 21.8525 251.119 21.3076C251.674 20.7627 251.952 20.0311 251.952 19.1128C251.952 18.5679 251.83 18.0885 251.588 17.6748C251.346 17.2611 250.937 16.9382 250.362 16.7061C249.797 16.474 249.015 16.3579 248.016 16.3579H245.11ZM274.921 26H262.176V3.87012H274.921V7.71484H266.868V12.5737H274.361V16.4185H266.868V22.125H274.921V26ZM286.931 3.87012C288.939 3.87012 290.594 4.1123 291.896 4.59668C293.207 5.08105 294.181 5.81266 294.817 6.7915C295.453 7.77035 295.771 9.00651 295.771 10.5C295.771 11.5091 295.579 12.3921 295.195 13.1489C294.812 13.9058 294.307 14.5465 293.682 15.0713C293.056 15.596 292.38 16.0249 291.653 16.3579L298.162 26H292.955L287.672 17.5083H285.175V26H280.482V3.87012H286.931ZM286.598 7.71484H285.175V13.6938H286.689C288.243 13.6938 289.353 13.4365 290.019 12.9219C290.695 12.3971 291.033 11.6302 291.033 10.6211C291.033 9.57161 290.669 8.82487 289.943 8.38086C289.226 7.93685 288.111 7.71484 286.598 7.71484ZM330.946 14.9048C330.946 16.6102 330.735 18.1642 330.311 19.5669C329.887 20.9595 329.241 22.1603 328.373 23.1694C327.515 24.1785 326.426 24.9556 325.104 25.5005C323.782 26.0353 322.218 26.3027 320.411 26.3027C318.605 26.3027 317.041 26.0353 315.719 25.5005C314.397 24.9556 313.302 24.1785 312.434 23.1694C311.577 22.1603 310.936 20.9544 310.512 19.5518C310.088 18.1491 309.876 16.59 309.876 14.8745C309.876 12.5838 310.25 10.5908 310.996 8.89551C311.753 7.1901 312.914 5.86816 314.478 4.92969C316.042 3.99121 318.03 3.52197 320.442 3.52197C322.843 3.52197 324.816 3.99121 326.36 4.92969C327.914 5.86816 329.064 7.1901 329.811 8.89551C330.568 10.6009 330.946 12.604 330.946 14.9048ZM314.796 14.9048C314.796 16.4487 314.987 17.7808 315.371 18.9009C315.764 20.0109 316.375 20.8687 317.202 21.4741C318.03 22.0695 319.099 22.3672 320.411 22.3672C321.743 22.3672 322.823 22.0695 323.651 21.4741C324.478 20.8687 325.078 20.0109 325.452 18.9009C325.835 17.7808 326.027 16.4487 326.027 14.9048C326.027 12.5838 325.593 10.7573 324.725 9.42529C323.857 8.09326 322.43 7.42725 320.442 7.42725C319.12 7.42725 318.04 7.72998 317.202 8.33545C316.375 8.93083 315.764 9.78857 315.371 10.9087C314.987 12.0187 314.796 13.3507 314.796 14.9048ZM356.095 26H350.131L340.504 9.25879H340.368C340.409 9.95508 340.444 10.6564 340.474 11.3628C340.504 12.0692 340.535 12.7756 340.565 13.4819C340.595 14.1782 340.626 14.8796 340.656 15.5859V26H336.463V3.87012H342.381L351.993 20.4448H352.099C352.079 19.7586 352.054 19.0775 352.023 18.4014C351.993 17.7253 351.963 17.0492 351.933 16.373C351.912 15.6969 351.892 15.0208 351.872 14.3447V3.87012H356.095V26ZM375.356 26H362.611V3.87012H375.356V7.71484H367.303V12.5737H374.796V16.4185H367.303V22.125H375.356V26ZM396.349 3.87012C398.357 3.87012 400.012 4.1123 401.313 4.59668C402.625 5.08105 403.599 5.81266 404.235 6.7915C404.871 7.77035 405.188 9.00651 405.188 10.5C405.188 11.5091 404.997 12.3921 404.613 13.1489C404.23 13.9058 403.725 14.5465 403.1 15.0713C402.474 15.596 401.798 16.0249 401.071 16.3579L407.58 26H402.373L397.09 17.5083H394.593V26H389.9V3.87012H396.349ZM396.016 7.71484H394.593V13.6938H396.106C397.66 13.6938 398.771 13.4365 399.437 12.9219C400.113 12.3971 400.451 11.6302 400.451 10.6211C400.451 9.57161 400.087 8.82487 399.361 8.38086C398.644 7.93685 397.529 7.71484 396.016 7.71484ZM431.382 14.9048C431.382 16.6102 431.17 18.1642 430.746 19.5669C430.322 20.9595 429.676 22.1603 428.808 23.1694C427.951 24.1785 426.861 24.9556 425.539 25.5005C424.217 26.0353 422.653 26.3027 420.846 26.3027C419.04 26.3027 417.476 26.0353 416.154 25.5005C414.832 24.9556 413.737 24.1785 412.869 23.1694C412.012 22.1603 411.371 20.9544 410.947 19.5518C410.523 18.1491 410.311 16.59 410.311 14.8745C410.311 12.5838 410.685 10.5908 411.431 8.89551C412.188 7.1901 413.349 5.86816 414.913 4.92969C416.477 3.99121 418.465 3.52197 420.877 3.52197C423.278 3.52197 425.251 3.99121 426.795 4.92969C428.349 5.86816 429.5 7.1901 430.246 8.89551C431.003 10.6009 431.382 12.604 431.382 14.9048ZM415.231 14.9048C415.231 16.4487 415.423 17.7808 415.806 18.9009C416.2 20.0109 416.81 20.8687 417.638 21.4741C418.465 22.0695 419.535 22.3672 420.846 22.3672C422.179 22.3672 423.258 22.0695 424.086 21.4741C424.913 20.8687 425.514 20.0109 425.887 18.9009C426.27 17.7808 426.462 16.4487 426.462 14.9048C426.462 12.5838 426.028 10.7573 425.16 9.42529C424.293 8.09326 422.865 7.42725 420.877 7.42725C419.555 7.42725 418.475 7.72998 417.638 8.33545C416.81 8.93083 416.2 9.78857 415.806 10.9087C415.423 12.0187 415.231 13.3507 415.231 14.9048ZM443.785 12.9824L448.402 3.87012H453.458L446.116 17.3872V26H441.454V17.5386L434.113 3.87012H439.199L443.785 12.9824ZM470.72 26L469.116 20.7324H461.048L459.443 26H454.388L462.198 3.7793H467.935L475.776 26H470.72ZM467.996 16.7969L466.391 11.6504C466.29 11.3073 466.154 10.8683 465.982 10.3335C465.821 9.78857 465.654 9.23861 465.483 8.68359C465.321 8.11849 465.19 7.62907 465.089 7.21533C464.988 7.62907 464.847 8.14372 464.665 8.75928C464.494 9.36475 464.327 9.93994 464.166 10.4849C464.004 11.0298 463.888 11.4183 463.818 11.6504L462.228 16.7969H467.996ZM479.506 26V3.87012H484.199V22.125H493.175V26H479.506ZM97.134 54H88.0891V38.2949H97.134V41.0234H91.4191V44.4717H96.7365V47.2002H91.4191V51.25H97.134V54ZM114.111 45.9971C114.111 47.766 113.771 49.2448 113.091 50.4336C112.418 51.6152 111.44 52.5068 110.158 53.1084C108.876 53.7028 107.333 54 105.528 54H101.081V38.2949H106.012C107.659 38.2949 109.088 38.5885 110.298 39.1758C111.508 39.7559 112.446 40.6188 113.112 41.7646C113.778 42.9033 114.111 44.3141 114.111 45.9971ZM110.652 46.083C110.652 44.9229 110.48 43.9704 110.137 43.2256C109.8 42.4736 109.299 41.9186 108.633 41.5605C107.974 41.2025 107.158 41.0234 106.184 41.0234H104.411V51.25H105.84C107.466 51.25 108.672 50.8167 109.46 49.9502C110.255 49.0837 110.652 47.7946 110.652 46.083ZM130.809 38.2949V48.457C130.809 49.5384 130.57 50.516 130.09 51.3896C129.617 52.2562 128.897 52.9437 127.931 53.4521C126.971 53.9606 125.761 54.2148 124.3 54.2148C122.223 54.2148 120.64 53.6849 119.552 52.625C118.463 51.5651 117.919 50.1615 117.919 48.4141V38.2949H121.238V47.9092C121.238 49.2054 121.503 50.1149 122.033 50.6377C122.563 51.1605 123.347 51.4219 124.386 51.4219C125.116 51.4219 125.707 51.2965 126.158 51.0459C126.616 50.7952 126.953 50.4085 127.168 49.8857C127.383 49.363 127.49 48.6969 127.49 47.8877V38.2949H130.809ZM141.986 40.8408C141.349 40.8408 140.783 40.9661 140.289 41.2168C139.802 41.4603 139.39 41.8148 139.053 42.2803C138.724 42.7458 138.473 43.3079 138.301 43.9668C138.13 44.6257 138.044 45.3669 138.044 46.1904C138.044 47.3005 138.18 48.2493 138.452 49.0371C138.731 49.8177 139.161 50.4157 139.741 50.8311C140.321 51.2393 141.069 51.4434 141.986 51.4434C142.623 51.4434 143.261 51.3717 143.898 51.2285C144.543 51.0853 145.241 50.8812 145.993 50.6162V53.4092C145.298 53.6956 144.614 53.8997 143.941 54.0215C143.268 54.1504 142.512 54.2148 141.675 54.2148C140.056 54.2148 138.724 53.8818 137.678 53.2158C136.64 52.5426 135.87 51.6045 135.369 50.4014C134.868 49.1911 134.617 47.7803 134.617 46.1689C134.617 44.9801 134.778 43.8916 135.1 42.9033C135.423 41.915 135.895 41.0592 136.518 40.3359C137.141 39.6126 137.911 39.054 138.828 38.6602C139.745 38.2663 140.797 38.0693 141.986 38.0693C142.767 38.0693 143.547 38.1696 144.328 38.3701C145.116 38.5635 145.868 38.832 146.584 39.1758L145.509 41.8828C144.922 41.6035 144.331 41.36 143.737 41.1523C143.143 40.9447 142.559 40.8408 141.986 40.8408ZM159.619 54L158.48 50.2617H152.754L151.616 54H148.028L153.571 38.2305H157.642L163.207 54H159.619ZM157.685 47.4688L156.546 43.8164C156.475 43.5729 156.378 43.2614 156.256 42.8818C156.142 42.4951 156.024 42.1048 155.902 41.7109C155.787 41.3099 155.694 40.9626 155.623 40.6689C155.551 40.9626 155.451 41.3278 155.322 41.7646C155.2 42.1943 155.082 42.6025 154.967 42.9893C154.853 43.376 154.77 43.6517 154.72 43.8164L153.592 47.4688H157.685ZM171.912 54H168.582V41.0664H164.318V38.2949H176.177V41.0664H171.912V54ZM179.254 54V38.2949H182.584V54H179.254ZM201.452 46.126C201.452 47.3363 201.302 48.4391 201.001 49.4346C200.7 50.4229 200.242 51.2751 199.626 51.9912C199.017 52.7074 198.244 53.2588 197.306 53.6455C196.368 54.0251 195.258 54.2148 193.976 54.2148C192.694 54.2148 191.584 54.0251 190.646 53.6455C189.707 53.2588 188.93 52.7074 188.315 51.9912C187.706 51.2751 187.251 50.4193 186.95 49.4238C186.649 48.4284 186.499 47.3219 186.499 46.1045C186.499 44.4788 186.764 43.0645 187.294 41.8613C187.831 40.651 188.655 39.7129 189.765 39.0469C190.875 38.3809 192.286 38.0479 193.997 38.0479C195.702 38.0479 197.102 38.3809 198.197 39.0469C199.3 39.7129 200.117 40.651 200.647 41.8613C201.184 43.0716 201.452 44.4932 201.452 46.126ZM189.99 46.126C189.99 47.2217 190.126 48.167 190.399 48.9619C190.678 49.7497 191.111 50.3584 191.698 50.7881C192.286 51.2106 193.045 51.4219 193.976 51.4219C194.921 51.4219 195.687 51.2106 196.274 50.7881C196.862 50.3584 197.288 49.7497 197.553 48.9619C197.825 48.167 197.961 47.2217 197.961 46.126C197.961 44.4788 197.653 43.1826 197.037 42.2373C196.421 41.292 195.408 40.8193 193.997 40.8193C193.059 40.8193 192.293 41.0342 191.698 41.4639C191.111 41.8864 190.678 42.4951 190.399 43.29C190.126 44.0778 189.99 45.0231 189.99 46.126ZM219.3 54H215.067L208.235 42.1191H208.139C208.167 42.6133 208.192 43.111 208.214 43.6123C208.235 44.1136 208.257 44.6149 208.278 45.1162C208.3 45.6104 208.321 46.1081 208.343 46.6094V54H205.367V38.2949H209.567L216.389 50.0576H216.464C216.449 49.5706 216.432 49.0872 216.41 48.6074C216.389 48.1276 216.367 47.6478 216.346 47.168C216.331 46.6882 216.317 46.2083 216.303 45.7285V38.2949H219.3V54ZM233.538 54L232.399 50.2617H226.674L225.535 54H221.947L227.49 38.2305H231.561L237.126 54H233.538ZM231.604 47.4688L230.466 43.8164C230.394 43.5729 230.297 43.2614 230.176 42.8818C230.061 42.4951 229.943 42.1048 229.821 41.7109C229.706 41.3099 229.613 40.9626 229.542 40.6689C229.47 40.9626 229.37 41.3278 229.241 41.7646C229.119 42.1943 229.001 42.6025 228.886 42.9893C228.772 43.376 228.69 43.6517 228.639 43.8164L227.511 47.4688H231.604ZM239.773 54V38.2949H243.103V51.25H249.473V54H239.773ZM265.306 54H261.976V41.0664H257.711V38.2949H269.571V41.0664H265.306V54ZM277.224 38.2949C278.649 38.2949 279.823 38.4668 280.747 38.8105C281.678 39.1543 282.369 39.6735 282.82 40.3682C283.272 41.0628 283.497 41.9401 283.497 43C283.497 43.7161 283.361 44.3428 283.089 44.8799C282.817 45.417 282.459 45.8717 282.015 46.2441C281.571 46.6165 281.091 46.9209 280.575 47.1572L285.194 54H281.499L277.75 47.9736H275.978V54H272.648V38.2949H277.224ZM276.987 41.0234H275.978V45.2666H277.052C278.155 45.2666 278.942 45.084 279.415 44.7188C279.895 44.3464 280.135 43.8021 280.135 43.0859C280.135 42.3411 279.877 41.8112 279.361 41.4961C278.853 41.181 278.062 41.0234 276.987 41.0234ZM297.445 54L296.307 50.2617H290.581L289.442 54H285.854L291.397 38.2305H295.469L301.033 54H297.445ZM295.512 47.4688L294.373 43.8164C294.301 43.5729 294.205 43.2614 294.083 42.8818C293.968 42.4951 293.85 42.1048 293.728 41.7109C293.614 41.3099 293.521 40.9626 293.449 40.6689C293.378 40.9626 293.277 41.3278 293.148 41.7646C293.027 42.1943 292.908 42.6025 292.794 42.9893C292.679 43.376 292.597 43.6517 292.547 43.8164L291.419 47.4688H295.512ZM303.68 54V38.2949H307.011V54H303.68ZM325.556 54H321.324L314.492 42.1191H314.395C314.424 42.6133 314.449 43.111 314.47 43.6123C314.492 44.1136 314.513 44.6149 314.535 45.1162C314.556 45.6104 314.578 46.1081 314.599 46.6094V54H311.624V38.2949H315.824L322.645 50.0576H322.72C322.706 49.5706 322.688 49.0872 322.667 48.6074C322.645 48.1276 322.624 47.6478 322.602 47.168C322.588 46.6882 322.574 46.2083 322.559 45.7285V38.2949H325.556V54ZM330.18 54V38.2949H333.51V54H330.18ZM352.056 54H347.824L340.992 42.1191H340.895C340.923 42.6133 340.949 43.111 340.97 43.6123C340.992 44.1136 341.013 44.6149 341.034 45.1162C341.056 45.6104 341.077 46.1081 341.099 46.6094V54H338.123V38.2949H342.324L349.145 50.0576H349.22C349.206 49.5706 349.188 49.0872 349.166 48.6074C349.145 48.1276 349.123 47.6478 349.102 47.168C349.088 46.6882 349.073 46.2083 349.059 45.7285V38.2949H352.056V54ZM362.642 45.1807H368.872V53.3232C368.049 53.5954 367.193 53.8138 366.305 53.9785C365.417 54.1361 364.411 54.2148 363.286 54.2148C361.725 54.2148 360.4 53.9069 359.312 53.291C358.223 52.6751 357.396 51.7656 356.83 50.5625C356.264 49.3594 355.982 47.8805 355.982 46.126C355.982 44.4788 356.297 43.0537 356.927 41.8506C357.564 40.6475 358.492 39.7165 359.709 39.0576C360.934 38.3988 362.427 38.0693 364.189 38.0693C365.019 38.0693 365.839 38.1589 366.649 38.3379C367.458 38.5169 368.192 38.7497 368.851 39.0361L367.744 41.7002C367.264 41.4567 366.717 41.2526 366.101 41.0879C365.485 40.9232 364.84 40.8408 364.167 40.8408C363.2 40.8408 362.359 41.0628 361.643 41.5068C360.934 41.9508 360.382 42.5739 359.988 43.376C359.602 44.1709 359.408 45.109 359.408 46.1904C359.408 47.2145 359.548 48.124 359.827 48.9189C360.107 49.7067 360.547 50.3262 361.149 50.7773C361.75 51.2214 362.534 51.4434 363.501 51.4434C363.974 51.4434 364.371 51.4219 364.694 51.3789C365.023 51.3288 365.331 51.2786 365.617 51.2285V47.9521H362.642V45.1807ZM379.656 54V38.2949H382.986V54H379.656ZM401.532 54H397.299L390.467 42.1191H390.371C390.399 42.6133 390.424 43.111 390.446 43.6123C390.467 44.1136 390.489 44.6149 390.51 45.1162C390.532 45.6104 390.553 46.1081 390.575 46.6094V54H387.599V38.2949H391.799L398.621 50.0576H398.696C398.682 49.5706 398.664 49.0872 398.642 48.6074C398.621 48.1276 398.599 47.6478 398.578 47.168C398.563 46.6882 398.549 46.2083 398.535 45.7285V38.2949H401.532V54ZM415.426 49.6387C415.426 50.5697 415.201 51.3789 414.75 52.0664C414.298 52.7539 413.639 53.2839 412.773 53.6562C411.914 54.0286 410.868 54.2148 409.636 54.2148C409.092 54.2148 408.558 54.179 408.036 54.1074C407.52 54.0358 407.022 53.932 406.542 53.7959C406.07 53.6527 405.619 53.4772 405.189 53.2695V50.1758C405.934 50.5052 406.707 50.8024 407.509 51.0674C408.311 51.3324 409.106 51.4648 409.894 51.4648C410.438 51.4648 410.875 51.3932 411.205 51.25C411.541 51.1068 411.785 50.9098 411.935 50.6592C412.085 50.4085 412.161 50.1221 412.161 49.7998C412.161 49.4059 412.028 49.0693 411.763 48.79C411.498 48.5107 411.133 48.2493 410.667 48.0059C410.209 47.7624 409.69 47.501 409.11 47.2217C408.745 47.0498 408.347 46.8421 407.917 46.5986C407.488 46.348 407.08 46.0436 406.693 45.6855C406.306 45.3275 405.987 44.8942 405.737 44.3857C405.493 43.8701 405.372 43.2542 405.372 42.5381C405.372 41.5999 405.586 40.7979 406.016 40.1318C406.446 39.4658 407.058 38.9574 407.853 38.6064C408.655 38.2484 409.6 38.0693 410.689 38.0693C411.505 38.0693 412.282 38.166 413.02 38.3594C413.765 38.5456 414.542 38.8177 415.351 39.1758L414.277 41.7646C413.554 41.471 412.905 41.2454 412.333 41.0879C411.76 40.9232 411.176 40.8408 410.582 40.8408C410.166 40.8408 409.812 40.9089 409.518 41.0449C409.224 41.1738 409.002 41.36 408.852 41.6035C408.702 41.8398 408.626 42.1156 408.626 42.4307C408.626 42.8031 408.734 43.1182 408.949 43.376C409.171 43.6266 409.5 43.8701 409.937 44.1064C410.381 44.3428 410.932 44.6185 411.591 44.9336C412.393 45.3132 413.077 45.7106 413.643 46.126C414.216 46.5342 414.656 47.0176 414.964 47.5762C415.272 48.1276 415.426 48.8151 415.426 49.6387ZM424.992 54H421.661V41.0664H417.397V38.2949H429.256V41.0664H424.992V54ZM432.333 54V38.2949H435.663V54H432.333ZM446.335 54H443.005V41.0664H438.74V38.2949H450.6V41.0664H446.335V54ZM466.46 38.2949V48.457C466.46 49.5384 466.22 50.516 465.74 51.3896C465.267 52.2562 464.548 52.9437 463.581 53.4521C462.621 53.9606 461.411 54.2148 459.95 54.2148C457.873 54.2148 456.291 53.6849 455.202 52.625C454.113 51.5651 453.569 50.1615 453.569 48.4141V38.2949H456.889V47.9092C456.889 49.2054 457.154 50.1149 457.683 50.6377C458.213 51.1605 458.998 51.4219 460.036 51.4219C460.766 51.4219 461.357 51.2965 461.808 51.0459C462.267 50.7952 462.603 50.4085 462.818 49.8857C463.033 49.363 463.141 48.6969 463.141 47.8877V38.2949H466.46ZM477.024 54H473.694V41.0664H469.429V38.2949H481.289V41.0664H477.024V54ZM493.411 54H484.366V38.2949H493.411V41.0234H487.696V44.4717H493.013V47.2002H487.696V51.25H493.411V54Z" fill="#3E3E3E"/>
</svg>
